<?xml version="1.0" standalone="no"?>
<!DOCTYPE svg PUBLIC "-//W3C//DTD SVG 20010904//EN"
 "http://www.w3.org/TR/2001/REC-SVG-20010904/DTD/svg10.dtd">
<svg version="1.0" xmlns="http://www.w3.org/2000/svg"
 width="500.000000pt" height="500.000000pt" viewBox="0 0 500.000000 500.000000"
 preserveAspectRatio="xMidYMid meet">

<g transform="translate(0.000000,500.000000) scale(0.100000,-0.100000)"
fill="#000000" stroke="none">
<path d="M2405 4140 c-340 -48 -521 -115 -774 -288 -179 -122 -300 -245 -428
-437 -155 -232 -235 -458 -264 -740 -11 -111 -6 -342 10 -420 44 -213 76 -315
142 -450 202 -412 554 -713 999 -854 36 -11 83 -23 105 -26 22 -4 74 -14 115
-22 52 -11 129 -16 255 -16 153 1 199 5 305 26 165 34 261 66 396 132 269 131
507 338 660 575 129 200 218 433 244 640 28 225 28 258 0 505 -24 210 -117
452 -248 647 -26 39 -58 87 -71 107 -69 103 -305 308 -461 402 -112 66 -282
140 -354 153 -21 4 -46 11 -55 16 -63 36 -445 69 -576 50z m1333 -715 c-2 -3
-142 -73 -309 -155 -167 -83 -311 -155 -319 -159 -13 -8 -532 -268 -1000 -501
-155 -78 -255 -130 -287 -150 -24 -15 -72 -8 -263 40 -47 12 -119 30 -160 40
-97 24 -145 37 -253 66 -48 13 -94 24 -101 24 -7 0 -21 9 -30 19 -23 25 -7 58
32 67 15 3 56 14 92 24 36 10 110 29 165 44 151 39 362 96 440 118 133 38 250
68 325 83 41 9 84 20 95 25 11 5 47 16 80 24 58 14 204 53 355 96 41 12 100
27 130 35 30 7 98 25 150 39 52 13 174 45 270 71 96 25 216 57 265 70 300 83
336 92 323 80z m98 -10 c3 -8 -4 -45 -16 -82 -23 -74 -41 -133 -90 -293 -18
-58 -36 -114 -40 -125 -5 -11 -31 -92 -59 -180 -28 -88 -59 -187 -70 -220 -11
-33 -32 -100 -46 -150 -15 -49 -44 -142 -65 -205 -39 -122 -79 -247 -125 -395
-74 -238 -70 -234 -160 -179 -32 19 -61 34 -66 34 -5 0 -9 5 -9 10 0 6 -4 10
-9 10 -10 0 -840 497 -863 518 -30 26 -22 55 25 89 72 53 239 183 308 239 36
30 69 54 73 54 3 0 45 31 94 70 85 68 109 87 206 160 26 19 70 53 99 76 29 22
90 70 137 105 163 125 185 142 220 170 19 16 84 66 144 112 59 45 140 108 180
139 72 58 120 74 132 43z"/>
</g>
</svg>
